<svg width="174" height="33" viewBox="0 0 174 33" fill="none" xmlns="http://www.w3.org/2000/svg">
<path d="M43.3189 14.5092V24.1739H41.1151V14.5781C41.1151 10.4459 43.9388 7.87476 48.1398 7.87476C51.1701 7.87476 53.7412 9.4358 53.9248 11.5248H54.1544C54.3151 9.4358 56.9781 7.87476 60.0772 7.87476C64.2094 7.87476 66.9412 10.4229 66.9412 14.5781V24.1739H64.7603V14.5092C64.7603 11.6396 62.809 9.91789 59.8935 9.91789C57.001 9.91789 55.1415 11.6167 55.1415 14.5092V24.1739H52.9377V14.5092C52.9377 11.6396 51.0094 9.91789 48.0939 9.91789C45.1784 9.91789 43.3189 11.6167 43.3189 14.5092ZM68.8468 18.4348C68.8468 14.8535 71.2572 12.4661 74.8843 12.4661C78.5115 12.4661 80.9219 14.8535 80.9219 18.4348C80.9219 22.016 78.5115 24.4035 74.8843 24.4035C71.2572 24.4035 68.8468 22.016 68.8468 18.4348ZM71.0276 18.4348C71.0276 20.7763 72.5657 22.3603 74.8843 22.3603C77.2029 22.3603 78.741 20.7763 78.741 18.4348C78.741 16.0932 77.2029 14.5092 74.8843 14.5092C72.5657 14.5092 71.0276 16.0932 71.0276 18.4348ZM96.771 12.4661C99.9161 12.4661 101.936 14.3715 101.936 18.2511V24.1739H99.7324V18.0675C99.7324 15.5422 98.378 14.5092 96.7251 14.5092C94.5443 14.5092 93.4653 16.0243 93.4653 18.0675V24.1739H91.2615V18.0675C91.2615 16.0243 90.1825 14.5092 88.0016 14.5092C86.3717 14.5092 84.9943 15.5422 84.9943 18.0675V24.1739H82.8135V18.2511C82.8135 14.3715 84.8107 12.4661 87.9787 12.4661C90.6187 12.4661 92.2716 14.1648 92.2486 16.0702H92.4782C92.4782 14.1648 94.1081 12.4661 96.771 12.4661ZM115.665 18.6873H106C106.046 20.8681 107.562 22.4062 109.903 22.4062C111.763 22.4062 113.025 21.3961 113.438 19.8351H115.665C115.16 22.7047 113.025 24.4035 109.857 24.4035C106.23 24.4035 103.82 22.016 103.82 18.4348C103.82 14.8535 106.23 12.4661 109.857 12.4661C113.324 12.4661 115.688 14.5781 115.665 18.0445V18.6873ZM106.161 17.0115H113.392C113.048 15.3356 111.763 14.3255 109.88 14.3255C107.998 14.3255 106.62 15.4504 106.161 17.0115ZM119.743 18.0675V24.1739H117.562V18.2511C117.562 14.7847 119.881 12.4661 123.462 12.4661C126.928 12.4661 129.247 14.7847 129.247 18.2511V24.1739H127.043V18.0675C127.043 15.9325 125.574 14.5092 123.37 14.5092C121.235 14.5092 119.743 15.9555 119.743 18.0675ZM137.577 24.1739C132.939 24.1739 131.103 22.2226 131.103 17.8608V10.3081H133.284V12.8334H137.577V14.7847H133.284V18.1822C133.284 21.0059 134.34 22.0848 137.577 22.0848V24.1739ZM141.534 18.8021C141.534 20.9141 143.026 22.3603 145.161 22.3603C147.365 22.3603 148.834 20.937 148.834 18.8021V12.6956H151.038V18.6184C151.038 22.0848 148.719 24.4035 145.253 24.4035C141.671 24.4035 139.353 22.0848 139.353 18.6184V12.6956H141.534V18.8021ZM166.896 12.4661C170.041 12.4661 172.061 14.3715 172.061 18.2511V24.1739H169.857V18.0675C169.857 15.5422 168.503 14.5092 166.85 14.5092C164.669 14.5092 163.59 16.0243 163.59 18.0675V24.1739H161.386V18.0675C161.386 16.0243 160.308 14.5092 158.127 14.5092C156.497 14.5092 155.119 15.5422 155.119 18.0675V24.1739H152.938V18.2511C152.938 14.3715 154.936 12.4661 158.104 12.4661C160.744 12.4661 162.397 14.1648 162.374 16.0702H162.603C162.603 14.1648 164.233 12.4661 166.896 12.4661Z" fill="white"/>
<rect width="33" height="33" rx="11.88" fill="#615FFF"/>
<path d="M5.5957 19.9434C6.86356 19.9434 7.89135 20.9712 7.89135 22.2391C7.89135 23.5069 6.86356 24.5347 5.5957 24.5347C4.32785 24.5347 3.30005 23.5069 3.30005 22.2391C3.30005 20.9712 4.32785 19.9434 5.5957 19.9434Z" fill="white"/>
<path d="M23.8295 8.46711C27.0857 8.5496 29.7001 11.2151 29.7001 14.4912V22.2391C29.7001 23.5069 28.6723 24.5347 27.4044 24.5347C26.1365 24.5347 25.1087 23.5069 25.1087 22.2391V14.4912C25.1087 13.7235 24.5058 13.0968 23.7477 13.0584L23.674 13.0565H23.1C22.3076 13.0565 21.6653 13.6988 21.6653 14.4912V22.2391C21.6653 23.5069 20.6375 24.5347 19.3696 24.5347C18.1018 24.5347 17.074 23.5069 17.074 22.2391V20.2304C17.074 19.4627 16.471 18.8359 15.7129 18.7975L15.6392 18.7956H15.0653C14.2729 18.7956 13.6305 19.438 13.6305 20.2304V22.2391L13.6274 22.3573C13.5659 23.5702 12.563 24.5347 11.3348 24.5347C10.1066 24.5347 9.10381 23.5702 9.04226 22.3573L9.03918 22.2391V20.2304C9.03918 16.9023 11.7372 14.2043 15.0653 14.2043H15.6392L15.7947 14.2062C16.235 14.2174 16.6635 14.2759 17.0754 14.3766C17.1365 11.1014 19.8102 8.46515 23.1 8.46515H23.674L23.8295 8.46711Z" fill="white"/>
</svg>
