<svg width="1136" height="144" viewBox="0 0 1136 144" fill="none" xmlns="http://www.w3.org/2000/svg">
<path d="M19.5428 58.221V142H0.438785V58.818C0.438785 22.998 24.9158 0.709992 61.3328 0.709992C87.6008 0.709992 109.889 14.242 111.481 32.351H113.471C114.864 14.242 137.948 0.709992 164.813 0.709992C200.633 0.709992 224.314 22.799 224.314 58.818V142H205.409V58.221C205.409 33.346 188.494 18.421 163.221 18.421C138.147 18.421 122.028 33.147 122.028 58.221V142H102.924V58.221C102.924 33.346 86.2078 18.421 60.9348 18.421C35.6618 18.421 19.5428 33.147 19.5428 58.221ZM240.832 92.25C240.832 61.206 261.727 40.51 293.169 40.51C324.611 40.51 345.506 61.206 345.506 92.25C345.506 123.294 324.611 143.99 293.169 143.99C261.727 143.99 240.832 123.294 240.832 92.25ZM259.737 92.25C259.737 112.548 273.07 126.279 293.169 126.279C313.268 126.279 326.601 112.548 326.601 92.25C326.601 71.952 313.268 58.221 293.169 58.221C273.07 58.221 259.737 71.952 259.737 92.25ZM482.896 40.51C510.159 40.51 527.671 57.027 527.671 90.658V142H508.567V89.066C508.567 67.176 496.826 58.221 482.498 58.221C463.593 58.221 454.24 71.355 454.24 89.066V142H435.136V89.066C435.136 71.355 425.783 58.221 406.878 58.221C392.749 58.221 380.809 67.176 380.809 89.066V142H361.904V90.658C361.904 57.027 379.217 40.51 406.679 40.51C429.564 40.51 443.892 55.236 443.693 71.753H445.683C445.683 55.236 459.812 40.51 482.896 40.51ZM646.68 94.439H562.901C563.299 113.344 576.433 126.677 596.731 126.677C612.85 126.677 623.795 117.921 627.377 104.389H646.68C642.302 129.264 623.795 143.99 596.333 143.99C564.891 143.99 543.996 123.294 543.996 92.25C543.996 61.206 564.891 40.51 596.333 40.51C626.382 40.51 646.879 58.818 646.68 88.867V94.439ZM564.294 79.912H626.979C623.994 65.385 612.85 56.629 596.532 56.629C580.214 56.629 568.274 66.38 564.294 79.912ZM682.029 89.066V142H663.124V90.658C663.124 60.609 683.223 40.51 714.267 40.51C744.316 40.51 764.415 60.609 764.415 90.658V142H745.311V89.066C745.311 70.559 732.575 58.221 713.471 58.221C694.964 58.221 682.029 70.758 682.029 89.066ZM836.621 142C796.423 142 780.503 125.085 780.503 87.275V21.804H799.408V43.694H836.621V60.609H799.408V90.061C799.408 114.538 808.562 123.891 836.621 123.891V142ZM870.924 95.434C870.924 113.742 883.859 126.279 902.366 126.279C921.47 126.279 934.206 113.941 934.206 95.434V42.5H953.31V93.842C953.31 123.891 933.211 143.99 903.162 143.99C872.118 143.99 852.019 123.891 852.019 93.842V42.5H870.924V95.434ZM1090.78 40.51C1118.04 40.51 1135.55 57.027 1135.55 90.658V142H1116.45V89.066C1116.45 67.176 1104.71 58.221 1090.38 58.221C1071.48 58.221 1062.12 71.355 1062.12 89.066V142H1043.02V89.066C1043.02 71.355 1033.67 58.221 1014.76 58.221C1000.63 58.221 988.691 67.176 988.691 89.066V142H969.786V90.658C969.786 57.027 987.099 40.51 1014.56 40.51C1037.45 40.51 1051.77 55.236 1051.58 71.753H1053.57C1053.57 55.236 1067.69 40.51 1090.78 40.51Z" fill="#312C85"/>
</svg>
