<svg width="33" height="33" viewBox="0 0 33 33" fill="none" xmlns="http://www.w3.org/2000/svg">
<rect width="33" height="33" rx="11.88" fill="#615FFF"/>
<path d="M5.5957 19.9434C6.86356 19.9434 7.89135 20.9712 7.89135 22.2391C7.89135 23.5069 6.86356 24.5347 5.5957 24.5347C4.32785 24.5347 3.30005 23.5069 3.30005 22.2391C3.30005 20.9712 4.32785 19.9434 5.5957 19.9434Z" fill="white"/>
<path d="M23.8295 8.46711C27.0857 8.5496 29.7001 11.2151 29.7001 14.4912V22.2391C29.7001 23.5069 28.6723 24.5347 27.4044 24.5347C26.1365 24.5347 25.1087 23.5069 25.1087 22.2391V14.4912C25.1087 13.7235 24.5058 13.0968 23.7477 13.0584L23.674 13.0565H23.1C22.3076 13.0565 21.6653 13.6988 21.6653 14.4912V22.2391C21.6653 23.5069 20.6375 24.5347 19.3696 24.5347C18.1018 24.5347 17.074 23.5069 17.074 22.2391V20.2304C17.074 19.4627 16.471 18.8359 15.7129 18.7975L15.6392 18.7956H15.0653C14.2729 18.7956 13.6305 19.438 13.6305 20.2304V22.2391L13.6274 22.3573C13.5659 23.5702 12.563 24.5347 11.3348 24.5347C10.1066 24.5347 9.10381 23.5702 9.04226 22.3573L9.03918 22.2391V20.2304C9.03918 16.9023 11.7372 14.2043 15.0653 14.2043H15.6392L15.7947 14.2062C16.235 14.2174 16.6635 14.2759 17.0754 14.3766C17.1365 11.1014 19.8102 8.46515 23.1 8.46515H23.674L23.8295 8.46711Z" fill="white"/>
</svg>
